<svg width="24" height="24" viewBox="0 0 24 24" fill="currentColor" xmlns="http://www.w3.org/2000/svg">
<path d="M8 20C7.71667 20 7.479 19.904 7.287 19.712C7.09567 19.5207 7 19.2833 7 19V18H6C5.71667 18 5.479 17.904 5.287 17.712C5.09567 17.5207 5 17.2833 5 17V7C5 6.71667 5.09567 6.479 5.287 6.287C5.479 6.09567 5.71667 6 6 6H7V5C7 4.71667 7.09567 4.479 7.287 4.287C7.479 4.09567 7.71667 4 8 4C8.28333 4 8.521 4.09567 8.713 4.287C8.90433 4.479 9 4.71667 9 5V6H10C10.2833 6 10.521 6.09567 10.713 6.287C10.9043 6.479 11 6.71667 11 7V17C11 17.2833 10.9043 17.5207 10.713 17.712C10.521 17.904 10.2833 18 10 18H9V19C9 19.2833 8.90433 19.5207 8.713 19.712C8.521 19.904 8.28333 20 8 20ZM16 20C15.7167 20 15.4793 19.904 15.288 19.712C15.096 19.5207 15 19.2833 15 19V15H14C13.7167 15 13.4793 14.904 13.288 14.712C13.096 14.5207 13 14.2833 13 14V9C13 8.71667 13.096 8.479 13.288 8.287C13.4793 8.09567 13.7167 8 14 8H15V5C15 4.71667 15.096 4.479 15.288 4.287C15.4793 4.09567 15.7167 4 16 4C16.2833 4 16.5207 4.09567 16.712 4.287C16.904 4.479 17 4.71667 17 5V8H18C18.2833 8 18.5207 8.09567 18.712 8.287C18.904 8.479 19 8.71667 19 9V14C19 14.2833 18.904 14.5207 18.712 14.712C18.5207 14.904 18.2833 15 18 15H17V19C17 19.2833 16.904 19.5207 16.712 19.712C16.5207 19.904 16.2833 20 16 20Z" fill="currentColor"/>
</svg>
